<?xml version="1.0" standalone="no"?><!DOCTYPE svg PUBLIC "-//W3C//DTD SVG 1.1//EN" "http://www.w3.org/Graphics/SVG/1.1/DTD/svg11.dtd"><svg class="icon" width="200px" height="200.00px" viewBox="0 0 1024 1024" version="1.1" xmlns="http://www.w3.org/2000/svg"><path fill="#cdcdcd" d="M804.571429 438.857143q0 79.433143-53.686857 146.870857t-146.578286 106.569143-202.020571 39.131429q-49.152 0-100.571429-9.142857-70.875429 50.322286-158.866286 73.142857-20.553143 5.12-49.152 9.142857l-1.682286 0q-6.290286 0-11.702857-4.534857t-6.582857-11.995429q-0.585143-1.682286-0.585143-3.730286t0.292571-3.730286 1.170286-3.437714l1.462857-2.852571t1.974857-3.145143 2.267429-2.852571 2.56-2.852571 2.267429-2.56q2.852571-3.437714 13.165714-14.262857t14.848-16.822857 12.873143-16.603429 14.262857-22.016 11.702857-25.161143q-70.875429-41.179429-111.396571-101.156571t-40.594286-128q0-79.433143 53.686857-146.870857t146.578286-106.569143 202.020571-39.131429 202.020571 39.131429 146.578286 106.569143 53.686857 146.870857zM1024 585.142857q0 68.534857-40.594286 128.292571t-111.396571 100.864q5.705143 13.677714 11.702857 25.161143t14.262857 22.016 12.873143 16.603429 14.848 16.822857 13.165714 14.262857q0.585143 0.585143 2.267429 2.56t2.56 2.852571 2.267429 2.852571 1.974857 3.145143l1.462857 2.852571t1.170286 3.437714 0.292571 3.730286-0.585143 3.730286q-1.682286 7.972571-7.460571 12.580571t-12.580571 4.022857q-28.598857-4.022857-49.152-9.142857-87.990857-22.820571-158.866286-73.142857-51.419429 9.142857-100.571429 9.142857-154.843429 0-269.677714-75.410286 33.133714 2.267429 50.322286 2.267429 92.013714 0 176.566857-25.746286t150.820571-73.728q71.460571-52.589714 109.714286-121.124571t38.253714-145.115429q0-44.032-13.165714-86.820571 73.728 40.594286 116.589714 101.741714t42.861714 131.437714z" /></svg>