<?xml version="1.0" standalone="no"?><!DOCTYPE svg PUBLIC "-//W3C//DTD SVG 1.1//EN" "http://www.w3.org/Graphics/SVG/1.1/DTD/svg11.dtd"><svg t="1534959848589" class="icon" style="" viewBox="0 0 1025 1024" version="1.1" xmlns="http://www.w3.org/2000/svg" p-id="9353" xmlns:xlink="http://www.w3.org/1999/xlink" width="200.1953125" height="200"><defs><style type="text/css"></style></defs><path d="M804.8 438.848q0 79.424-53.728 146.848t-146.56 106.56-202.016 39.136q-49.152 0-100.576-9.152-70.848 50.272-158.848 73.152-20.576 5.152-49.152 9.152l-1.728 0q-6.272 0-11.712-4.576t-6.56-12q-0.576-1.728-0.576-3.712t0.288-3.712 1.152-3.424l1.44-2.848t2.016-3.136 2.272-2.848 2.56-2.848 2.272-2.56q2.848-3.424 13.152-14.272t14.848-16.864 12.864-16.576 14.272-22.016 11.712-25.152q-70.848-41.152-111.424-101.152t-40.576-128q0-79.424 53.728-146.848t146.56-106.56 201.984-39.136 202.016 39.136 146.56 106.56 53.728 146.848zM1024.224 585.152q0 68.576-40.576 128.288t-111.424 100.864q5.728 13.728 11.712 25.152t14.272 22.016 12.864 16.576 14.848 16.864 13.152 14.272q0.576 0.576 2.272 2.56t2.56 2.848 2.272 2.848 2.016 3.136l1.44 2.848t1.152 3.424 0.288 3.712-0.576 3.712q-1.728 8-7.424 12.576t-12.576 4q-28.576-4-49.152-9.152-88-22.848-158.848-73.152-51.424 9.152-100.576 9.152-154.848 0-269.728-75.424 33.152 2.272 50.272 2.272 92 0 176.576-25.728t150.848-73.728q71.424-52.576 109.728-121.152t38.272-145.152q0-44-13.152-86.848 73.728 40.576 116.576 101.728t42.848 131.424z" p-id="9354"></path></svg>