<?xml version="1.0" standalone="no"?><!DOCTYPE svg PUBLIC "-//W3C//DTD SVG 1.1//EN" "http://www.w3.org/Graphics/SVG/1.1/DTD/svg11.dtd"><svg t="1533140359049" class="icon" style="" viewBox="0 0 1024 1024" version="1.1" xmlns="http://www.w3.org/2000/svg" p-id="17852" xmlns:xlink="http://www.w3.org/1999/xlink" width="200" height="200"><defs><style type="text/css"></style></defs><path d="M810.666667 896 341.333333 896 341.333333 298.666667 810.666667 298.666667M810.666667 213.333333 341.333333 213.333333C294.4 213.333333 256 251.733333 256 298.666667L256 896C256 942.933333 294.4 981.333333 341.333333 981.333333L810.666667 981.333333C857.6 981.333333 896 942.933333 896 896L896 298.666667C896 251.733333 857.6 213.333333 810.666667 213.333333M682.666667 42.666667 170.666667 42.666667C123.733333 42.666667 85.333333 81.066667 85.333333 128L85.333333 725.333333 170.666667 725.333333 170.666667 128 682.666667 128 682.666667 42.666667Z" p-id="17853"></path></svg>