<?xml version="1.0" standalone="no"?><!DOCTYPE svg PUBLIC "-//W3C//DTD SVG 1.1//EN" "http://www.w3.org/Graphics/SVG/1.1/DTD/svg11.dtd"><svg class="icon" width="200px" height="160.00px" viewBox="0 0 1280 1024" version="1.1" xmlns="http://www.w3.org/2000/svg"><path fill="#cdcdcd" d="M1151.550321 1024l-91.4238-91.4238A508.350888 508.350888 0 0 0 1151.99832 640.288839c0-136.831701-53.247884-265.471419-149.983672-362.207207A508.446888 508.446888 0 0 0 639.99944 128.06596 508.702887 508.702887 0 0 0 277.920232 278.081632 509.054886 509.054886 0 0 0 128.00056 640.288839c0 106.111768 32.383929 207.071547 91.807799 292.319361L128.448559 1024A635.038611 635.038611 0 0 1 0.00084 640.288839C0.00084 469.249214 66.560694 308.449565 187.42443 187.52183A635.710609 635.710609 0 0 1 639.99944 0.00224a635.710609 635.710609 0 0 1 452.57501 187.51959A636.286608 636.286608 0 0 1 1279.99804 640.288839c0 140.383693-45.5039 273.503402-128.447719 383.711161zM256.00028 576.00098a63.99986 63.99986 0 1 1 0 127.99972 63.99986 63.99986 0 0 1 0-127.99972z m67.199853-252.767447a63.99986 63.99986 0 1 1 90.527802 90.463802 63.99986 63.99986 0 0 1-90.527802-90.463802zM575.99958 256.00168a63.99986 63.99986 0 1 1 127.96772-0.032A63.99986 63.99986 0 0 1 575.99958 256.00168z m239.999475 239.167477s-66.367855 306.911329-92.863797 352.831228a95.99979 95.99979 0 0 1-166.271636-95.99979c26.495942-45.9199 259.135433-256.831438 259.135433-256.831438z m140.767692-171.935624a63.96786 63.96786 0 1 1-90.495802 90.495802 63.99986 63.99986 0 1 1 90.495802-90.495802zM1023.9986 576.00098a63.99986 63.99986 0 1 1 0 127.99972 63.99986 63.99986 0 0 1 0-127.99972z" /></svg>