<?xml version="1.0" standalone="no"?><!DOCTYPE svg PUBLIC "-//W3C//DTD SVG 1.1//EN" "http://www.w3.org/Graphics/SVG/1.1/DTD/svg11.dtd"><svg class="icon" width="200px" height="200.00px" viewBox="0 0 1024 1024" version="1.1" xmlns="http://www.w3.org/2000/svg"><path fill="#cdcdcd" d="M868.5184 694.878208q0-22.85568-15.998976-38.854656l-118.849536-118.849536q-15.998976-15.998976-38.854656-15.998976-23.998464 0-41.140224 18.284544 1.714176 1.714176 10.856448 10.570752t12.284928 12.284928 8.57088 10.856448 7.428096 14.570496 1.999872 15.71328q0 22.85568-15.998976 38.854656t-38.854656 15.998976q-8.57088 0-15.71328-1.999872t-14.570496-7.428096-10.856448-8.57088-12.284928-12.284928-10.570752-10.856448q-18.855936 17.713152-18.855936 41.711616 0 22.85568 15.998976 38.854656l117.706752 118.278144q15.427584 15.427584 38.854656 15.427584 22.85568 0 38.854656-14.856192l83.994624-83.423232q15.998976-15.998976 15.998976-38.283264zm-401.688576-402.83136q0-22.85568-15.998976-38.854656l-117.706752-118.278144q-15.998976-15.998976-38.854656-15.998976-22.284288 0-38.854656 15.427584l-83.994624 83.423232q-15.998976 15.998976-15.998976 38.283264 0 22.85568 15.998976 38.854656l118.849536 118.849536q15.427584 15.427584 38.854656 15.427584 23.998464 0 41.140224-17.713152-1.714176-1.714176-10.856448-10.570752t-12.284928-12.284928-8.57088-10.856448-7.428096-14.570496-1.999872-15.71328q0-22.85568 15.998976-38.854656t38.854656-15.998976q8.57088 0 15.71328 1.999872t14.570496 7.428096 10.856448 8.57088 12.284928 12.284928 10.570752 10.856448q18.855936-17.713152 18.855936-41.711616zm511.39584 402.83136q0 68.56704-48.56832 115.992576l-83.994624 83.423232q-47.425536 47.425536-115.992576 47.425536-69.138432 0-116.563968-48.56832l-117.706752-118.278144q-47.425536-47.425536-47.425536-115.992576 0-70.281216 50.282496-119.420928l-50.282496-50.282496q-49.139712 50.282496-118.849536 50.282496-68.56704 0-116.563968-47.996928l-118.849536-118.849536q-47.996928-47.996928-47.996928-116.563968t48.56832-115.992576l83.994624-83.423232q47.425536-47.425536 115.992576-47.425536 69.138432 0 116.563968 48.56832l117.706752 118.278144q47.425536 47.425536 47.425536 115.992576 0 70.281216-50.282496 119.420928l50.282496 50.282496q49.139712-50.282496 118.849536-50.282496 68.56704 0 116.563968 47.996928l118.849536 118.849536q47.996928 47.996928 47.996928 116.563968z" /></svg>