<?xml version="1.0" standalone="no"?><!DOCTYPE svg PUBLIC "-//W3C//DTD SVG 1.1//EN" "http://www.w3.org/Graphics/SVG/1.1/DTD/svg11.dtd"><svg t="1533133611017" class="icon" style="" viewBox="0 0 1024 1024" version="1.1" xmlns="http://www.w3.org/2000/svg" p-id="5969" xmlns:xlink="http://www.w3.org/1999/xlink" width="200" height="200"><defs><style type="text/css"></style></defs><path d="M387.935086 81.013029 56.378514 81.013029c-18.300343 0-33.148343 14.848-33.148343 33.148343l0 350.954057c0 18.300343 14.848 33.162971 33.148343 33.162971l331.556571 0c18.314971 0 33.162971-14.862629 33.162971-33.162971L421.098057 114.161371C421.098057 95.8464 406.250057 81.013029 387.935086 81.013029L387.935086 81.013029zM354.786743 431.937829 89.541486 431.937829 89.541486 147.324343l265.245257 0L354.786743 431.937829 354.786743 431.937829z" p-id="5970"></path><path d="M387.935086 611.518171 56.378514 611.518171c-18.300343 0-33.148343 14.833371-33.148343 33.133714l0 331.585829c0 18.314971 14.848 33.133714 33.148343 33.133714l331.556571 0c18.314971 0 33.162971-14.818743 33.162971-33.133714L421.098057 644.637257C421.098057 626.336914 406.250057 611.518171 387.935086 611.518171L387.935086 611.518171zM354.786743 943.060114 89.541486 943.060114 89.541486 677.814857l265.245257 0L354.786743 943.060114 354.786743 943.060114z" p-id="5971"></path><path d="M918.4256 611.518171 586.8544 611.518171c-18.300343 0-33.133714 14.833371-33.133714 33.133714l0 331.585829c0 18.314971 14.833371 33.133714 33.133714 33.133714l331.5712 0c18.300343 0 33.1776-14.818743 33.1776-33.133714L951.6032 644.637257C951.6032 626.336914 936.725943 611.518171 918.4256 611.518171L918.4256 611.518171zM885.291886 943.060114 620.046629 943.060114 620.046629 677.814857l265.245257 0L885.291886 943.060114 885.291886 943.060114 885.291886 943.060114z" p-id="5972"></path><path d="M1008.201143 258.852571 773.7344 24.400457c-12.931657-12.946286-33.909029-12.946286-46.884571 0L492.412343 258.852571c-12.946286 12.946286-12.946286 33.938286 0 46.8992l234.437486 234.437486c12.975543 12.946286 33.952914 12.946286 46.884571 0L1008.201143 305.737143C1021.1328 292.790857 1021.1328 271.798857 1008.201143 258.852571L1008.201143 258.852571zM750.2848 469.855086l-187.538286-187.552914 187.538286-187.552914 187.567543 187.552914L750.2848 469.855086 750.2848 469.855086z" p-id="5973"></path></svg>