<?xml version="1.0" standalone="no"?><!DOCTYPE svg PUBLIC "-//W3C//DTD SVG 1.1//EN" "http://www.w3.org/Graphics/SVG/1.1/DTD/svg11.dtd"><svg class="icon" width="200px" height="200.00px" viewBox="0 0 1024 1024" version="1.1" xmlns="http://www.w3.org/2000/svg"><path fill="#cdcdcd" d="M313.291332 736.341464l207.526497 0 0 31.927153-207.526497 0 0-31.927153ZM313.291332 417.069931l383.125841 0 0 31.927153-383.125841 0 0-31.927153ZM313.291332 273.39774l383.125841 0 0 31.927153-383.125841 0 0-31.927153ZM313.291332 576.705698l207.526497 0 0 31.927153-207.526497 0 0-31.927153ZM185.582719 856.06829l0-654.506644c0-22.01234 17.896602-39.908942 39.908942-39.908942l590.652338 0c22.01234 0 39.908942 17.896602 39.908942 39.908942l0 199.544709 47.89073 0 0-199.544709c0-48.40443-39.395242-87.799672-87.799672-87.799672l-590.652338 0c-48.406476 0-87.799672 39.395242-87.799672 87.799672l0 654.506644c0 48.40443 39.393195 87.799672 87.799672 87.799672l199.544709 0 0-47.89073-199.544709 0C203.479321 895.977231 185.582719 878.080629 185.582719 856.06829zM974.711434 545.838689l-39.957037-39.971363-39.954991-39.940664c-7.357572-7.357572-19.284205-7.357572-26.641777 0L538.455535 795.628756c-2.112104 1.730411-3.748371 4.068665-4.589528 6.873548l-36.488029 121.394814c-1.544169 5.160533-0.016373 10.523681 3.538593 14.078647l0.989537 0.763386 0.77055 0.981351c3.554966 3.554966 8.902764 5.082762 14.062274 3.554966l121.394814-36.494169c2.844791-0.858554 5.213745-2.52552 6.938016-4.677533l329.638649-329.638649C982.061842 565.122895 982.061842 553.181935 974.711434 545.838689zM626.436332 880.792391l-95.197152 28.622898 28.622898-95.235015 255.020184-255.027347 66.596767 66.598814L626.436332 880.792391zM941.412027 565.809533l-46.611597 46.611597-66.590628-66.598814 46.605457-46.596248c3.677762-3.679809 9.641591-3.679809 13.319353-0.016373l26.892487 26.892487 26.384927 26.393113C945.090812 556.175105 945.090812 562.145074 941.412027 565.809533z" /></svg>