<?xml version="1.0" standalone="no"?><!DOCTYPE svg PUBLIC "-//W3C//DTD SVG 1.1//EN" "http://www.w3.org/Graphics/SVG/1.1/DTD/svg11.dtd"><svg id="logoaa" width="1920" height="2000" viewBox="0 0 144 150" xmlns="http://www.w3.org/2000/svg" ><g transform="rotate(0,0,0) matrix(0.75,0,0,0.75,0,0)" >




<path fill="#FFFFFF" d="M21.407,30.837c3.43-8.497,7.102-16.875,10.771-25.253c5.824,35.025,25.052,65.903,49.348,91.195
	c-0.08,4.229-0.121,8.419-0.16,12.605c0.917-3.029,2.752-9.173,3.708-12.207c9.418,11.53,20.941,21.024,32.232,30.677
	c1.355-0.997,4.114-2.95,5.509-3.909c7.098,7.221,13.004,15.556,14.839,25.731c4.788,2.992,9.571,6.023,14.363,9.093
	c-44.007-14.878-83.3-42.723-112.74-78.585c21.781,35.264,58.44,56.966,93.947,76.194c-12.646,3.833-25.767,1.956-38.417-0.717
	c2.357-1.396,7.103-4.149,9.456-5.548c-29.242-0.795-51.581-23.215-72.604-41.087c4.227-0.719,8.497-1.438,12.765-2.115
	c-17.233,0.319-25.052-16.555-29.281-30.598c-4.986-15.079-2.672-31.156-0.239-46.436C16.541,30.118,19.772,30.598,21.407,30.837z"></path>
<path fill="#47a2fc" d="M12.59,27.884C24.638,23.616,27.311,9.455,34.093,0c3.311,13.682,6.662,27.366,11.13,40.769
	c28.961-10.689,63.708-11.288,88.762,9.017c33.188,23.217,41.728,70.531,23.975,105.954c11.25,3.95,22.619,7.58,33.87,11.57
	c-12.966-2.314-25.732-5.867-38.058-10.573c-3.39,16.198-18.111,26.289-31.595,33.947c-30.481,16.238-70.73,10.854-95.705-13.081
	C2.538,156.06-6.598,119.52,5.011,89.359C15.104,70.171,6.248,48.111,12.59,27.884 M21.407,30.837
	c-1.635-0.24-4.866-0.719-6.502-0.959c-2.433,15.28-4.747,31.357,0.239,46.436c4.229,14.042,12.048,30.917,29.281,30.598
	c-4.268,0.678-8.538,1.396-12.765,2.115c21.024,17.872,43.362,40.292,72.604,41.087c-2.354,1.398-7.099,4.152-9.456,5.548
	c12.65,2.673,25.771,4.55,38.417,0.717c-35.507-19.228-72.166-40.93-93.947-76.194c29.44,35.863,68.733,63.708,112.74,78.585
	c-4.792-3.069-9.575-6.101-14.363-9.093c-1.835-10.176-7.741-18.511-14.839-25.731c-1.395,0.959-4.153,2.912-5.509,3.909
	c-11.291-9.653-22.814-19.147-32.232-30.677c-0.956,3.033-2.791,9.177-3.708,12.207c0.039-4.187,0.08-8.377,0.16-12.605
	C57.23,71.488,38.002,40.609,32.178,5.584C28.508,13.963,24.837,22.34,21.407,30.837z"></path>

</g></svg>