<?xml version="1.0" standalone="no"?><!DOCTYPE svg PUBLIC "-//W3C//DTD SVG 1.1//EN" "http://www.w3.org/Graphics/SVG/1.1/DTD/svg11.dtd"><svg t="1533134056638" class="icon" style="" viewBox="0 0 1024 1024" version="1.1" xmlns="http://www.w3.org/2000/svg" p-id="1454" xmlns:xlink="http://www.w3.org/1999/xlink" width="200" height="200"><defs><style type="text/css"></style></defs><path d="M588.8 721.92q30.72 0 52.224 22.016t21.504 52.736l0 153.6q0 30.72-21.504 52.224t-52.224 21.504l-154.624 0q-29.696 0-51.712-21.504t-22.016-52.224l0-153.6q0-30.72 22.016-52.736t51.712-22.016l154.624 0zM226.304 721.92q31.744 0 53.248 22.016t21.504 52.736l0 153.6q0 30.72-21.504 52.224t-53.248 21.504l-152.576 0q-30.72 0-52.224-21.504t-21.504-52.224l0-153.6q0-30.72 21.504-52.736t52.224-22.016l152.576 0zM950.272 0q29.696 0 51.2 21.504t21.504 52.224l0 153.6q0 30.72-21.504 52.736t-51.2 22.016l-153.6 0q-31.744 0-53.248-22.016t-21.504-52.736l0-153.6q0-30.72 21.504-52.224t53.248-21.504l153.6 0zM580.608 0q33.792 0 57.856 24.064t24.064 56.832l0 499.712q0 34.816-24.064 58.368t-57.856 23.552l-499.712 0q-33.792 0-57.344-23.552t-23.552-58.368l0-499.712q0-32.768 23.552-56.832t57.344-24.064l499.712 0zM950.272 721.92q29.696 0 51.2 22.016t21.504 52.736l0 153.6q0 30.72-21.504 52.224t-51.2 21.504l-153.6 0q-31.744 0-53.248-21.504t-21.504-52.224l0-153.6q0-30.72 21.504-52.736t53.248-22.016l153.6 0zM950.272 361.472q29.696 0 51.2 21.504t21.504 52.224l0 153.6q0 30.72-21.504 52.224t-51.2 21.504l-153.6 0q-31.744 0-53.248-21.504t-21.504-52.224l0-153.6q0-30.72 21.504-52.224t53.248-21.504l153.6 0z" p-id="1455"></path></svg>