<?xml version="1.0" standalone="no"?><!DOCTYPE svg PUBLIC "-//W3C//DTD SVG 1.1//EN" "http://www.w3.org/Graphics/SVG/1.1/DTD/svg11.dtd"><svg t="1533133463044" class="icon" style="" viewBox="0 0 1024 1024" version="1.1" xmlns="http://www.w3.org/2000/svg" p-id="4907" xmlns:xlink="http://www.w3.org/1999/xlink" width="200" height="200"><defs><style type="text/css"></style></defs><path d="M335.136 256q0-30.272-21.44-51.712t-51.712-21.44-51.712 21.44-21.44 51.712 21.44 51.712 51.712 21.44 51.712-21.44 21.44-51.712zM944.864 585.152q0 30.272-21.152 51.424l-280.576 281.152q-22.272 21.152-52 21.152-30.272 0-51.424-21.152l-408.576-409.152q-21.728-21.152-36.864-57.728t-15.136-66.848l0-237.728q0-29.728 21.728-51.424t51.424-21.728l237.728 0q30.272 0 66.848 15.136t58.272 36.864l408.576 408q21.152 22.272 21.152 52z" p-id="4908"></path></svg>