<?xml version="1.0" standalone="no"?><!DOCTYPE svg PUBLIC "-//W3C//DTD SVG 1.1//EN" "http://www.w3.org/Graphics/SVG/1.1/DTD/svg11.dtd"><svg t="1534959931191" class="icon" style="" viewBox="0 0 1024 1024" version="1.1" xmlns="http://www.w3.org/2000/svg" p-id="10161" xmlns:xlink="http://www.w3.org/1999/xlink" width="200" height="200"><defs><style type="text/css"></style></defs><path d="M397.065 309.472m-179.229 0a179.229 179.229 0 1 0 358.458 0 179.229 179.229 0 1 0-358.458 0Z" p-id="10162"></path><path d="M710.715 443.894m-134.421 0a134.421 134.421 0 1 0 268.842 0 134.421 134.421 0 1 0-268.842 0Z" p-id="10163"></path><path d="M958.167 811.405c-16.235-131.576-120.835-233.09-247.452-233.09a233.207 233.207 0 0 0-79.622 13.969c-60.127-64.034-142.785-103.583-234.028-103.583-172.93 0-315.059 142.02-331.305 323.664-1.672 18.7 13.112 34.793 31.886 34.793h828.737c19.159 0 34.13-16.737 31.784-35.753z" p-id="10164"></path></svg>