<?xml version="1.0" standalone="no"?><!DOCTYPE svg PUBLIC "-//W3C//DTD SVG 1.1//EN" "http://www.w3.org/Graphics/SVG/1.1/DTD/svg11.dtd"><svg class="icon" width="200px" height="186.52px" viewBox="0 0 1098 1024" version="1.1" xmlns="http://www.w3.org/2000/svg"><path fill="#cdcdcd" d="M338.835456 512.032768q-92.565504 2.85696-151.41888 73.138176l-76.566528 0q-46.854144 0-78.852096-23.141376t-31.997952-67.709952q0-201.701376 70.852608-201.701376 3.428352 0 24.855552 11.999232t55.71072 24.28416 67.995648 12.284928q38.283264 0 75.995136-13.142016-2.85696 21.141504-2.85696 37.711872 0 79.423488 46.282752 146.276352zm611.960832 363.976704q0 68.56704-41.711616 108.278784t-110.850048 39.711744l-499.396608 0q-69.138432 0-110.850048-39.711744t-41.711616-108.278784q0-30.283776 1.999872-59.139072t7.999488-62.281728 15.141888-61.996032 24.569856-55.71072 35.426304-46.282752 48.854016-30.569472 63.710208-11.42784q5.71392 0 24.569856 12.284928t41.711616 27.426816 61.138944 27.426816 77.13792 12.284928 77.13792-12.284928 61.138944-27.426816 41.711616-27.426816 24.569856-12.284928q34.854912 0 63.710208 11.42784t48.854016 30.569472 35.426304 46.282752 24.569856 55.71072 15.141888 61.996032 7.999488 62.281728 1.999872 59.139072zm-585.105408-729.667584q0 60.567552-42.8544 103.421952t-103.421952 42.8544-103.421952-42.8544-42.8544-103.421952 42.8544-103.421952 103.421952-42.8544 103.421952 42.8544 42.8544 103.421952zm402.259968 219.414528q0 90.851328-64.2816 155.132928t-155.132928 64.2816-155.132928-64.2816-64.2816-155.132928 64.2816-155.132928 155.132928-64.2816 155.132928 64.2816 64.2816 155.132928zm329.121792 128.5632q0 44.568576-31.997952 67.709952t-78.852096 23.141376l-76.566528 0q-58.853376-70.281216-151.41888-73.138176 46.282752-66.852864 46.282752-146.276352 0-16.570368-2.85696-37.711872 37.711872 13.142016 75.995136 13.142016 33.712128 0 67.995648-12.284928t55.71072-24.28416 24.855552-11.999232q70.852608 0 70.852608 201.701376zm-73.138176-347.977728q0 60.567552-42.8544 103.421952t-103.421952 42.8544-103.421952-42.8544-42.8544-103.421952 42.8544-103.421952 103.421952-42.8544 103.421952 42.8544 42.8544 103.421952z" /></svg>