<?xml version="1.0" standalone="no"?><!DOCTYPE svg PUBLIC "-//W3C//DTD SVG 1.1//EN" "http://www.w3.org/Graphics/SVG/1.1/DTD/svg11.dtd"><svg t="1533140329531" class="icon" style="" viewBox="0 0 1024 1024" version="1.1" xmlns="http://www.w3.org/2000/svg" p-id="17161" xmlns:xlink="http://www.w3.org/1999/xlink" width="200" height="200"><defs><style type="text/css"></style></defs><path d="M854.016 768l0-384-171.989333 0 0 384 171.989333 0zM640 553.984l0-169.984-470.016 0 0 169.984 470.016 0zM640 768l0-169.984-470.016 0 0 169.984 470.016 0zM854.016 169.984q34.005333 0 59.008 25.984t25.002667 59.989333l0 512q0 34.005333-25.002667 59.989333t-59.008 25.984l-683.989333 0q-34.005333 0-59.008-25.984t-25.002667-59.989333l0-512q0-34.005333 25.002667-59.989333t59.008-25.984l683.989333 0z" p-id="17162"></path></svg>