<?xml version="1.0" standalone="no"?><!DOCTYPE svg PUBLIC "-//W3C//DTD SVG 1.1//EN" "http://www.w3.org/Graphics/SVG/1.1/DTD/svg11.dtd"><svg t="1533140716395" class="icon" style="" viewBox="0 0 1024 1024" version="1.1" xmlns="http://www.w3.org/2000/svg" p-id="18447" xmlns:xlink="http://www.w3.org/1999/xlink" width="200" height="200"><defs><style type="text/css"></style></defs><path d="M671.3 367.172c10.224 0 20.448 0.756 30.708 1.8-27.54-128.448-164.808-223.703-321.408-223.703-175.032 0-318.6 119.232-318.6 270.936 0 87.517 47.628 159.48 127.368 215.244l-31.752 95.94 111.492-56.089c39.852 7.776 71.964 15.84 111.492 15.84 9.864 0 19.764-0.324 29.628-1.403-6.372-21.168-9.864-43.74-9.864-66.672-0.036-138.997 119.592-251.892 270.936-251.892v0zM499.832 280.736c23.976 0 39.852 15.876 39.852 39.852s-15.876 39.852-39.852 39.852c-24.012 0-47.989-15.876-47.989-39.852 0.36-23.94 24.336-39.852 47.989-39.852v0zM276.883 360.476c-24.012 0-47.989-15.876-47.989-39.852s23.976-39.852 47.989-39.852c23.976 0 39.817 15.876 39.817 39.852 0 23.617-15.84 39.852-39.817 39.852v0zM962 615.536c0-127.332-127.368-231.083-270.612-231.083-151.703 0-270.936 103.752-270.936 231.083 0 127.728 119.268 231.12 270.936 231.12 31.752 0 63.828-8.136 95.58-15.876l87.517 47.989-23.976-79.74c63.864-47.989 111.492-111.889 111.492-183.492v0zM603.548 575.683c-15.84 0-31.752-15.84-31.752-31.752 0-15.84 15.876-31.752 31.752-31.752 24.011 0 39.852 15.876 39.852 31.752 0 15.876-15.84 31.752-39.852 31.752v0zM778.903 575.683c-15.876 0-31.752-15.84-31.752-31.752 0-15.84 15.84-31.752 31.752-31.752 23.976 0 39.852 15.876 39.852 31.752 0 15.876-16.236 31.752-39.852 31.752v0zM778.903 575.683z" p-id="18448"></path></svg>